<svg width="99" height="130" viewBox="0 0 99 130" fill="none" xmlns="http://www.w3.org/2000/svg">
<path d="M77.1464 0C87.335 0 95.5945 14.1015 95.5945 31.4967C95.5945 44.526 90.9602 55.7069 84.3527 60.4989C93.367 67.7726 98.9487 77.8458 98.9487 88.9781C98.9487 111.157 76.7983 129.136 49.4743 129.136C22.1504 129.136 0 111.157 0 88.9781C0 77.8462 5.5806 67.7726 14.5943 60.4989C7.98741 55.7065 3.35419 44.5253 3.35419 31.4967C3.35419 14.1015 11.6137 0 21.8023 0C31.9908 0 40.2503 14.1015 40.2503 31.4967C40.2503 38.4937 38.9095 44.9562 36.6488 50.184C40.7393 49.2953 45.0385 48.8199 49.4743 48.8199C53.9096 48.8199 58.2082 49.2955 62.2982 50.184C60.0376 44.9563 58.6984 38.4935 58.6984 31.4967C58.6984 14.1015 66.9579 0 77.1464 0Z" fill="#B59AA4"/>
</svg>
